<?xml version="1.0" encoding="utf-8"?>
<!-- Generator: Adobe Illustrator 22.1.0, SVG Export Plug-In . SVG Version: 6.00 Build 0)  -->
<svg version="1.1" id="beerBottle" xmlns="http://www.w3.org/2000/svg" xmlns:xlink="http://www.w3.org/1999/xlink" x="0px" y="0px"
	 viewBox="0 0 45 141.4" style="enable-background:new 0 0 45 141.4;" xml:space="preserve">
<style type="text/css">
	.st0{fill:url(#bottle_1_);}
	.st1{stroke:#000000;stroke-width:0.5;stroke-miterlimit:10;}
	.st2{fill:#C69C6D;}
	.st3{opacity:0.6;}
</style>
<linearGradient id="bottle_1_" gradientUnits="userSpaceOnUse" x1="36.2079" y1="72.1383" x2="-15.0184" y2="72.1383">
	<stop  offset="0" style="stop-color:#8C6239"/>
	<stop  offset="1" style="stop-color:#C69C6D"/>
</linearGradient>
<path id="bottle" class="st0" d="M45,78.1v56.5c0,3.8-3.1,6.8-6.8,6.8H6.8c-3.8,0-6.8-3-6.8-6.8V78.1c0-7.7,3.9-14.5,9.8-18.5
	c1.3-0.9,2.2-2.4,2.4-4l4.3-52.7h13.3L33,55.5c0.1,1.7,1,3.2,2.4,4.1C41.2,63.7,45,70.4,45,78.1z"/>
<g id="cap">
	<g>
		<path d="M31,4.7c0,0-0.2,0.2-0.2,0.2c0,0,0.3,0,0.3,0.1c0,0-0.3,0-0.3,0.1c0,0,0.3,0,0.3,0.1c0,0-0.3,0-0.3,0.1c0,0,0.3,0,0.3,0.1
			c0,0-0.3,0-0.3,0.1c0,0,0.3,0,0.3,0.1c0,0-0.3,0-0.3,0.1c0,0,0.3,0,0.3,0.1c0,0-0.3,0-0.3,0.1c0,0,0.3,0,0.3,0.1
			c0,0-0.3,0-0.3,0.1c0,0,0.3,0,0.3,0.1c0,0-0.3,0-0.3,0.1c0,0,0.3,0,0.3,0.1c0,0-0.3,0-0.3,0.1c0,0,0.2,0.2,0.2,0.2
			c-0.5,0-0.5-0.3-0.9-0.3c-0.5,0-0.5,0.3-0.9,0.3c-0.5,0-0.5-0.3-0.9-0.3c-0.5,0-0.5,0.3-0.9,0.3c-0.5,0-0.5-0.3-0.9-0.3
			c-0.5,0-0.5,0.3-0.9,0.3c-0.5,0-0.5-0.3-0.9-0.3c-0.5,0-0.5,0.3-0.9,0.3c-0.5,0-0.5-0.3-0.9-0.3c-0.5,0-0.5,0.3-0.9,0.3
			c-0.5,0-0.5-0.3-0.9-0.3c-0.5,0-0.5,0.3-0.9,0.3c-0.5,0-0.5-0.3-0.9-0.3c-0.5,0-0.5,0.3-0.9,0.3c-0.5,0-0.5-0.3-0.9-0.3
			c-0.5,0-0.5,0.3-0.9,0.3c-0.5,0-0.5-0.3-0.9-0.3s-0.5,0.4-0.9,0.3c0,0,0.2-0.1,0.2-0.2c0,0-0.3-0.1-0.3-0.2c0,0,0.3,0.1,0.3,0.1
			c0,0-0.3-0.1-0.3-0.2c0,0,0.3,0.1,0.3,0.1c0,0-0.3-0.1-0.3-0.2c0,0,0.3,0.1,0.3,0.1c0,0-0.3-0.1-0.3-0.2c0,0,0.3,0.1,0.3,0.1
			c0,0-0.3-0.1-0.3-0.2c0,0,0.3,0.1,0.3,0c0,0-0.3-0.1-0.3-0.2c0,0,0.3,0.1,0.3,0c0,0-0.3-0.1-0.3-0.2c0,0,0.3,0.1,0.3,0
			c0,0-0.3-0.1-0.3-0.2c0,0,0.3,0.1,0.3,0c0,0-0.2-0.3-0.1-0.3c0.4,0,0.5,0.3,0.9,0.3c0.4,0,0.4-0.3,0.9-0.3c0.4,0,0.4,0.3,0.9,0.3
			C18,5,18,4.7,18.4,4.7c0.4,0,0.4,0.3,0.9,0.3c0.4,0,0.4-0.3,0.9-0.3c0.4,0,0.4,0.3,0.9,0.3c0.4,0,0.4-0.3,0.9-0.3
			c0.4,0,0.4,0.3,0.9,0.3c0.4,0,0.4-0.3,0.9-0.3c0.5,0,0.5,0.3,0.9,0.3c0.4,0,0.4-0.3,0.9-0.3C26,4.7,26,5,26.5,5
			c0.4,0,0.4-0.3,0.9-0.3c0.5,0,0.5,0.3,0.9,0.3c0.5,0,0.5-0.3,0.9-0.3c0.5,0,0.5,0.4,0.9,0.3C30.6,5,30.6,4.7,31,4.7z"/>
	</g>
	<path class="st1" d="M31,1.6v4H14.5v-4c0-0.7,1-1.3,2.3-1.3h12C30,0.3,31,0.8,31,1.6z"/>
</g>
<g id="shines">
	<path class="st2" d="M3.6,132.9L3.6,132.9c-0.9,0-1.6-0.7-1.6-1.6V78.6c0-0.9,0.7-1.6,1.6-1.6h0c0.9,0,1.6,0.7,1.6,1.6v52.8
		C5.2,132.2,4.5,132.9,3.6,132.9z"/>
	<path class="st2" d="M16.3,50.9L16.3,50.9c-1,1.6-1-7.2-0.3-12.7l1.7-23.6c0.1-0.8,0.2-0.9,0.7-1.4h0c0.8,0.1,1.5,0.9,1.4,1.7
		l-1.7,23.6C18,39.5,17.2,51,16.3,50.9z"/>
</g>
<g id="label" class="st3">
	<path d="M41.6,94.1c0,0.5,0,2.1,0,2.6c0,13.9-8.6,23-19.1,23s-19.1-9.2-19.1-23c0-0.5,0-2.1,0-2.6c0-0.5,0-1,0-1.6
		c0-13.9,8.6-23,19.1-23s19.1,9.2,19.1,23C41.6,93.1,41.6,93.6,41.6,94.1z"/>
</g>
</svg>
