<?xml version="1.0" encoding="utf-8"?>
<!-- Generator: Adobe Illustrator 22.1.0, SVG Export Plug-In . SVG Version: 6.00 Build 0)  -->
<svg version="1.1" id="beerMug" xmlns="http://www.w3.org/2000/svg" xmlns:xlink="http://www.w3.org/1999/xlink" x="0px" y="0px"
	 viewBox="0 0 102 126.2" style="enable-background:new 0 0 102 126.2;" xml:space="preserve">
<style type="text/css">
	.st0{fill:#CC8952;}
	.st1{fill:#E89E5B;}
	.st2{fill:none;stroke:#191919;stroke-width:2;stroke-linecap:round;stroke-miterlimit:10;}
	.st3{fill:#E89E5B;stroke:#0F0F0F;stroke-width:2;stroke-linecap:round;stroke-miterlimit:10;}
	.st4{fill:#F0DEB4;}
</style>
<g id="mug">
	<path class="st0" d="M102,74.4c0,14-11,25.4-24.9,26.1V93c9.7-0.6,17.4-8.7,17.4-18.6s-7.7-18-17.4-18.6v-7.5
		C91,49,102,60.4,102,74.4z"/>
	<path class="st1" d="M61.1,126.2H21.5c-8.8,0-16-7.2-16-16V23.4h71.7v86.8C77.1,119,70,126.2,61.1,126.2z"/>
	<path class="st0" d="M76.3,31.2v80.4c0,6.8-2.3,13.1-12,13.8H53.8V31.2H76.3z"/>
	<g id="lines">
		<line class="st2" x1="25.7" y1="56.1" x2="25.7" y2="112.2"/>
		<line class="st2" x1="54.5" y1="56.1" x2="54.5" y2="112.2"/>
		<line class="st3" x1="17.1" y1="120.8" x2="56.1" y2="120.8"/>
		<line class="st3" x1="60.8" y1="120.8" x2="66.8" y2="120.8"/>
	</g>
</g>
<g id="beerFoam">
	<rect x="5.3" y="25.7" class="st4" width="71.9" height="17.1"/>
	<path class="st4" d="M90.3,31.3c-0.6,4.3-4.1,7.8-8.4,8.4c-3.2,0.4-6.1-0.8-8.1-2.8c-0.5-0.5-1.2-0.2-1.2,0.5l0,15.2
		c0,1-0.7,1.9-1.7,2c-1.2,0.1-2.1-0.8-2.1-1.9V41.2c0-1-0.9-1.7-1.8-1.3c-1.2,0.4-2.6,0.6-4,0.6c0,0,0,0,0,0c-0.6,0-1.2,0.5-1.2,1.1
		l0,19.4c0,1-0.7,1.9-1.7,2c-1.2,0.1-2.1-0.8-2.1-1.9V40.6c0-0.9-0.4-1.6-1.1-2.1c-0.8-0.6-1.6-1.3-2.2-2.1
		c-0.5-0.7-1.5-0.9-2.2-0.6c-1.3,0.6-2.7,0.9-4.2,0.9c-4.1,0-7.7-2.4-9.4-5.8c-0.2-0.5-0.9-0.5-1.1,0c-1.6,3.8-5.3,6.5-9.7,6.5
		c-2.6,0-4.9-0.9-6.8-2.5c-0.6-0.5-1.5-0.5-2.1,0c-2.1,1.8-5,2.7-8.1,2.4c-4.9-0.6-8.8-4.7-9.1-9.7C1.5,26,1.7,24.4,2.3,23
		c-1.6-1.7-2.5-4.1-2.3-6.8c0.4-3.8,3.4-7,7.2-7.6c1.8-0.3,3.5,0,5,0.7c0.8,0.4,1.8,0.1,2.2-0.7c1.8-3.3,5.3-5.6,9.3-5.6
		c2.7,0,5.1,1,7,2.6c0.4,0.4,1.1,0.3,1.4-0.2C34.2,2.2,37.9,0,42.1,0c4.5,0,8.3,2.5,10.3,6.2c0.3,0.5,1,0.6,1.3,0.1
		c1.7-2,4.2-3.2,7.1-3.2c4.6,0,8.4,3.3,9.2,7.6c0.1,0.7,0.8,1,1.4,0.8c1.5-0.6,3.3-0.8,5.1-0.5c4.4,0.7,7.7,4.7,7.7,9.2
		c0,0,0,0,0,0.1c0,0.4,0.2,0.7,0.6,0.9C88.4,22.9,90.9,26.8,90.3,31.3z"/>
</g>
</svg>
