<?xml version="1.0" encoding="utf-8"?>
<!-- Generator: Adobe Illustrator 22.1.0, SVG Export Plug-In . SVG Version: 6.00 Build 0)  -->
<svg version="1.1" id="champagne" xmlns="http://www.w3.org/2000/svg" xmlns:xlink="http://www.w3.org/1999/xlink" x="0px" y="0px"
	 viewBox="0 0 48.2 147.2" style="enable-background:new 0 0 48.2 147.2;" xml:space="preserve">
<style type="text/css">
	.st0{fill:#FCBD00;}
	.st1{opacity:0.12;fill:#009EFF;}
	.st2{fill:#F0DEB4;}
	.st3{fill:none;stroke:#F0DEB4;stroke-miterlimit:10;}
	.st0:hover {fill:#996D00;}

	.st1:hover {fill:#000;}
</style>
<path id="champagneDrink" class="st0" d="M40.6,52.9c0.2-8.2-1.8-25.1-2.2-32.6c0,0-28.3,0-28.3,0.1c-1.1,7.3-2.5,22.8-2.5,32.2
	c0,5,1,11.7,2.9,16.5c3.2,7.8,8.3,16.2,13.6,16.2c5.1,0,9.9-7.7,13.4-15.3C40.1,64.2,40.5,55.1,40.6,52.9z"/>
<g id="champagneGlass">
	<path class="st1" d="M48.2,145.9c0.2,0.9-12,1.3-24.2,1.3c-12.1,0-24.2-0.4-24-1.3c0.5-1.8,7.1-2.9,12-3.8c4.8-0.9,7.1-2.2,8.7-7.8
		c0.8-2.9,0.8-12,0.6-21.1c-0.2-8.3,0.9-21.8-1.3-24.6c-1.7-2.1-5.5-6.5-7.2-9.3c-3.3-5.5-6.6-11.9-7.4-20.4
		C4,43.4,8.8,10.6,8.8,10.6h30.5c0,0,4.9,32.8,3.5,48.4c-0.9,10-5.2,18.1-8.5,22.3c-1.4,1.8-5.6,5.8-6.4,7.6
		c-1.4,3-0.8,16.1-0.9,24.4c-0.2,9.1-0.2,18.2,0.6,21.1c1.5,5.6,3.8,6.9,8.7,7.8C41,143,47.7,144.1,48.2,145.9z"/>
	<path class="st1" d="M42.7,58.9c-0.9,10-5.2,18.1-8.5,22.3c0,0.1-0.1,0.1-0.1,0.2l0-0.2c-6.2,7.6-11.8,7.2-15.2,5.6
		c0.1-0.2,0.1-0.5,0.2-0.6c0.8-1.8,4.8-5.7,6.2-7.5c3.2-4.2,7.3-12.1,8.2-21.9c1.2-13.5-2.3-40.1-3.1-46.2h9
		C39.3,10.6,44.2,43.4,42.7,58.9z"/>
	<path class="st1" d="M24.8,133.5c-0.8-2.9-0.8-12-0.6-21.1c0.2-8.3-0.5-21.4,0.9-24.4c0.8-1.8,5-5.8,6.4-7.6
		c3.3-4.3,7.6-12.3,8.5-22.3c1.3-14.1-2.6-42.4-3.3-47.5h2.6c0,0,4.9,32.8,3.5,48.4c-0.9,10-5.2,18.1-8.5,22.3
		c-1.4,1.8-5.6,5.8-6.4,7.6c-1.4,3-0.8,16.1-0.9,24.4c-0.2,9.1-0.2,18.2,0.6,21.1c1.1,3.9,2.5,5.7,5,6.8
		C28.3,140.2,26.2,138.7,24.8,133.5z"/>
</g>
<g id="bubbles_1_">
	<ellipse class="st2" cx="13.3" cy="11.3" rx="1.9" ry="1.8"/>
	<ellipse class="st2" cx="16" cy="10.2" rx="1.9" ry="1.8"/>
	<ellipse class="st3" cx="19.1" cy="5.9" rx="1.9" ry="1.8"/>
	<ellipse class="st3" cx="14.4" cy="8.5" rx="1.9" ry="1.8"/>
	<ellipse class="st3" cx="14.5" cy="3" rx="1.9" ry="1.8"/>
	<ellipse class="st2" cx="19.1" cy="11.3" rx="1.9" ry="1.8"/>
	<ellipse class="st2" cx="22.3" cy="10.2" rx="1.9" ry="1.8"/>
	<ellipse class="st3" cx="31" cy="8.9" rx="1.9" ry="1.8"/>
	<ellipse class="st3" cx="30.2" cy="4.6" rx="1.9" ry="1.8"/>
	<ellipse class="st3" cx="36.8" cy="6.1" rx="1.9" ry="1.8"/>
	<ellipse class="st3" cx="24.6" cy="2.3" rx="1.9" ry="1.8"/>
	<ellipse class="st3" cx="24.4" cy="7.9" rx="1.9" ry="1.8"/>
	<ellipse class="st2" cx="25.4" cy="11" rx="1.9" ry="1.8"/>
	<ellipse class="st2" cx="28.5" cy="10.3" rx="1.9" ry="1.8"/>
	<ellipse class="st2" cx="31.6" cy="11" rx="1.9" ry="1.8"/>
	<ellipse class="st2" cx="34.7" cy="10.3" rx="1.9" ry="1.8"/>
	<polygon class="st2" points="37,10.6 11.4,10.6 9.8,20.6 38.2,20.6 	"/>
</g>
</svg>
