<?xml version="1.0" encoding="utf-8"?>
<!-- Generator: Adobe Illustrator 22.1.0, SVG Export Plug-In . SVG Version: 6.00 Build 0)  -->
<svg version="1.1" id="cocktail" xmlns="http://www.w3.org/2000/svg" xmlns:xlink="http://www.w3.org/1999/xlink" x="0px" y="0px"
	 viewBox="0 0 59.6 144.3" style="enable-background:new 0 0 59.6 144.3;" xml:space="preserve">
<style type="text/css">
	.st0{opacity:0.12;fill:#009EFF;}
	.st1{opacity:0.5;fill:#FF7BAC;}
	.st2{opacity:0.4;fill:#FFFFFF;}
	.st3{opacity:0.3;}
	.st4{opacity:0.8;}
</style>
<g id="cocktailGlass_1_">
	<path id="cocktailGlass" class="st0" d="M53,144.3H6.7c-3.7,0-6.7-3-6.7-6.7V12.9h59.6v124.7C59.6,141.3,56.6,144.3,53,144.3z"/>
	<path id="cocktailHighlight" class="st0" d="M59.6,12.9v126.6c0,2.6-2.1,4.7-4.7,4.7H4.7c-2.5,0-4.5-1.9-4.7-4.3h47.8
		c2.6,0,4.7-2.1,4.7-4.7V12.9H59.6z"/>
</g>
<path id="cocktailDrink" class="st1" d="M47,137.9H12.6c-5,0-9.1-4.1-9.1-9.1v-96h52.5v96C56.1,133.8,52,137.9,47,137.9z"/>
<g id="cocktailIce">
	<rect x="7.8" y="111.6" transform="matrix(0.969 -0.247 0.247 0.969 -29.7043 8.4463)" class="st2" width="22" height="22"/>
	
		<rect x="27.7" y="89.6" transform="matrix(-0.5832 0.8123 -0.8123 -0.5832 142.9844 127.8586)" class="st2" width="22" height="22"/>
	
		<rect x="9.2" y="65.8" transform="matrix(0.9991 -4.135362e-02 4.135362e-02 0.9991 -3.1606 0.9026)" class="st2" width="22.1" height="22.1"/>
	<rect x="29.1" y="44.5" transform="matrix(0.8244 0.566 -0.566 0.8244 38.4893 -12.951)" class="st2" width="22.1" height="22.1"/>
</g>
<g id="cocktailStraw_2_">
	
		<rect id="cocktailStraw" x="12.1" y="-0.6" transform="matrix(0.9853 -0.1707 0.1707 0.9853 -10.3593 3.3316)" class="st3" width="4.3" height="124.9"/>
	<polygon id="cocktailStraw_1_" class="st4" points="11.4,32.8 7.1,32.8 1.4,0.7 5.6,0 	"/>
</g>
</svg>
