<?xml version="1.0" encoding="utf-8"?>
<!-- Generator: Adobe Illustrator 22.1.0, SVG Export Plug-In . SVG Version: 6.00 Build 0)  -->
<svg version="1.1" id="Layer_1" xmlns="http://www.w3.org/2000/svg" xmlns:xlink="http://www.w3.org/1999/xlink" x="0px" y="0px"
	 viewBox="0 0 89.3 140.6" style="enable-background:new 0 0 89.3 140.6;" xml:space="preserve">
<style type="text/css">
	.st0{opacity:0.12;fill:#009EFF;}
	.st1{fill:#FFFFFF;}
	.st2{fill:#BF1313;}
	.st3{fill:#D27DFF;}
	.st4{fill:#FFEB8A;}
	.st5{fill:#FFFCE9;}
</style>
<g id="coladaGlass">
	<path id="glassHighlight" class="st0" d="M56.6,129.6c-8.5-2.6-7.9-11.4-8-22.9c-0.1-12,7.6-11.5,18.2-25
		c10.6-13.5,0.5-30.9-1.6-40C63,32.7,69,18.2,69,18.2l-2.9,0c-0.1,0.2-1.8,4.4-3,9.7h0.2c0,0-0.8,2.5-1.3,6c0,0,0,0.1,0,0.1
		c-0.3,2.7-0.3,5.4,0.3,7.8c2.2,9.1,12.2,26.5,1.6,40c-10.6,13.5-18.3,13-18.2,25c0.1,11.4-0.5,20.2,8,22.9
		c8.5,2.6,12.9,4.6,10.5,6.6c-0.1,0.1-0.2,0.1-0.3,0.2c-0.1,0.1-0.3,0.2-0.5,0.3c0,0,0,0,0,0c-0.1,0.1-0.2,0.1-0.3,0.2
		c-0.4,0.2-0.8,0.4-1.3,0.6c-0.1,0.1-0.3,0.1-0.4,0.2c-0.2,0.1-0.3,0.1-0.5,0.2c-0.6,0.2-1.3,0.4-2.1,0.6c-0.2,0.1-0.4,0.1-0.6,0.2
		c-0.7,0.2-1.4,0.3-2.1,0.5c-0.3,0.1-0.6,0.1-1,0.2c-0.8,0.1-1.6,0.3-2.4,0.4c-0.3,0-0.6,0.1-0.9,0.1c-3,0.4-6.6,0.7-10.8,0.7
		c0.4,0,0.9,0,1.3,0c4.8,0,8.9-0.3,12.3-0.7c0.3,0,0.6-0.1,0.9-0.1c0.6-0.1,1.2-0.2,1.8-0.3c0.2,0,0.4-0.1,0.6-0.1
		c0.3-0.1,0.7-0.1,1-0.2c0.8-0.2,1.5-0.3,2.1-0.5c0.2-0.1,0.4-0.1,0.6-0.2c0.8-0.2,1.5-0.4,2.1-0.6c0.2-0.1,0.3-0.1,0.5-0.2
		c0.1-0.1,0.3-0.1,0.4-0.2c0.5-0.2,0.9-0.4,1.3-0.6c0.1-0.1,0.2-0.1,0.3-0.2c0,0,0,0,0,0c0.2-0.1,0.3-0.2,0.5-0.3
		c0.1-0.1,0.2-0.2,0.3-0.2C69.5,134.3,65.2,132.3,56.6,129.6z"/>
	<g id="mainGlass">
		<path class="st0" d="M56.6,129.6c-8.5-2.6-7.9-11.4-8-22.9c-0.1-12,7.6-11.5,18.2-25c10.6-13.5,0.5-30.9-1.6-40
			C63,32.7,69,18.2,69,18.2l-25.1,0.1h-0.2l-7.4,0l-4.5,0l-3.3,0l-3.7,0l-6,0c0,0,6,14.5,3.8,23.6c-2.2,9.1-12.2,26.5-1.6,40
			c10.6,13.5,18.2,13.1,18,25.1c-0.1,11.4,0.7,20.1-7.9,22.7c-8.5,2.6-12.9,4.6-10.5,6.6c2.4,1.9,10.2,4.4,21.8,4.4
			c4.8,0,8.9-0.3,12.3-0.7c0.3,0,0.6-0.1,0.9-0.1c0.6-0.1,1.2-0.2,1.8-0.3c0.2,0,0.4-0.1,0.6-0.1c0.3-0.1,0.7-0.1,1-0.2
			c0.8-0.2,1.5-0.3,2.1-0.5c0.2-0.1,0.4-0.1,0.6-0.2c0.8-0.2,1.5-0.4,2.1-0.6c0.2-0.1,0.3-0.1,0.5-0.2c0.1-0.1,0.3-0.1,0.4-0.2
			c0.5-0.2,0.9-0.4,1.3-0.6c0.1-0.1,0.2-0.1,0.3-0.2c0,0,0,0,0,0c0.2-0.1,0.3-0.2,0.5-0.3c0.1-0.1,0.2-0.2,0.3-0.2
			C69.5,134.3,65.2,132.3,56.6,129.6z M43.7,91.3c-11.2-0.1-17.8-8.2-20.5-11.9c-8-10.9,0.2-27.3,2.1-35.3c1.9-8-0.9-16.3-0.9-16.3
			l19.2,0.1v0h0.1l0.6,0l19-0.1c0,0-2.8,8.6-0.9,16.6c1.9,8,9,20.8,1.9,34.1c-3.1,5.9-11.6,12.8-20.4,12.8
			C43.8,91.3,43.7,91.3,43.7,91.3z"/>
		<path class="st1" d="M57.9,139.3c-1,0.2-2.1,0.4-3.3,0.5C55.8,139.7,56.9,139.5,57.9,139.3z"/>
		<polygon class="st1" points="44.2,27.9 43.5,27.9 43.5,27.9 43.7,27.9 		"/>
	</g>
</g>
<g id="straw">
	<path class="st2" d="M48.5,77.7l-3,0.9C44.7,75.8,30,30.3,29.1,27.6c-2.5-7.5-4.9-14-6-15.1C20.2,11.2,5.5,7.9,0,6.8l0.7-3.1
		c2.1,0.5,20.6,4.4,23.9,5.9c1.6,0.7,4.3,6.7,7.9,17.9C33.2,29.9,47.7,74.9,48.5,77.7z"/>
</g>
<path id="umbrella" class="st3" d="M89.3,19.5L74,5l1.1-2.1c0.2-0.4,0-1-0.6-1.3c-0.5-0.3-1.2-0.2-1.4,0.2L72,4L51.1,0
	c0,0,3.3,2.5,17.6,9.9l-0.8,1.4c-0.2,0.3-0.1,0.7,0.2,1l-9.2,15.8l0.9,0.5L69,12.8c0.4,0,0.7-0.1,0.9-0.4l0.8-1.5
	C85.5,18.4,89.3,19.5,89.3,19.5z"/>
<path id="drink" class="st4" d="M64.3,78.5c-3.1,5.9-11.6,12.8-20.4,12.8c-0.1,0-0.1,0-0.2,0c-11.2-0.1-17.8-8.2-20.5-11.9
	c-8-10.9,0.2-27.3,2.1-35.3c1.9-8-0.9-16.3-0.9-16.3l19.2,0.1h0.7l19-0.1c0,0-2.8,8.6-0.9,16.6C64.3,52.4,71.3,65.2,64.3,78.5z"/>
<g id="bubbles">
	<circle class="st5" cx="25.8" cy="27.1" r="1.8"/>
	<circle class="st5" cx="28" cy="28.6" r="1.8"/>
	<circle class="st5" cx="30.1" cy="27.8" r="1.8"/>
	<circle class="st5" cx="32.3" cy="28.6" r="1.8"/>
	<circle class="st5" cx="34.5" cy="27.8" r="1.8"/>
	<circle class="st5" cx="36.6" cy="28.6" r="1.8"/>
	<circle class="st5" cx="39.5" cy="27.8" r="1.8"/>
	<circle class="st5" cx="42.4" cy="27.1" r="1.8"/>
	<circle class="st5" cx="44.5" cy="28.6" r="1.8"/>
	<circle class="st5" cx="47.4" cy="27.1" r="1.8"/>
	<circle class="st5" cx="49.6" cy="28.6" r="1.8"/>
	<circle class="st5" cx="51.7" cy="28.6" r="1.8"/>
	<circle class="st5" cx="53.2" cy="27.8" r="1.8"/>
	<circle class="st5" cx="56.1" cy="29.3" r="1.8"/>
	<circle class="st5" cx="58.2" cy="27.8" r="1.8"/>
	<circle class="st5" cx="60.4" cy="28.6" r="1.8"/>
	<circle class="st5" cx="61.8" cy="27.1" r="1.8"/>
</g>
</svg>
