<?xml version="1.0" encoding="utf-8"?>
<!-- Generator: Adobe Illustrator 22.1.0, SVG Export Plug-In . SVG Version: 6.00 Build 0)  -->
<svg version="1.1" id="logo" xmlns="http://www.w3.org/2000/svg" xmlns:xlink="http://www.w3.org/1999/xlink" x="0px" y="0px"
	 viewBox="0 0 455 209" style="enable-background:new 0 0 455 209;" xml:space="preserve">
<style type="text/css">
	.st0{fill:#F7931E;}
	.st1{fill:#FFFFFF;}
	.st2{fill:none;stroke:#000000;stroke-width:5;stroke-miterlimit:10;}
</style>
<g id="orangeRings">
	<g>
		<circle class="st0" cx="108.5" cy="104.5" r="86.5"/>
	</g>
	<g>
		<path class="st0" d="M108.5,7c53.8,0,97.5,43.7,97.5,97.5S162.3,202,108.5,202S11,158.3,11,104.5S54.7,7,108.5,7 M108.5,0
			C50.8,0,4,46.8,4,104.5S50.8,209,108.5,209S213,162.2,213,104.5S166.2,0,108.5,0L108.5,0z"/>
	</g>
	<g>
		<path class="st1" d="M108.5,45c32.8,0,59.5,26.7,59.5,59.5S141.3,164,108.5,164S49,137.3,49,104.5S75.7,45,108.5,45 M108.5,38
			C71.8,38,42,67.8,42,104.5S71.8,171,108.5,171s66.5-29.8,66.5-66.5S145.2,38,108.5,38L108.5,38z"/>
	</g>
</g>
<g id="FandD">
	<g>
		<path class="st1" d="M29.2,103v16.8c0,6.7,0.4,10.6,1.1,11.7c0.7,1.1,2.5,1.7,5.5,1.7h3.5v3.1c-6.2-0.2-11.1-0.3-14.8-0.3
			c-3.7,0-8.5,0.1-14.4,0.3v-3.1H14c2.8,0,4.5-0.5,5.2-1.6c0.6-1.1,1-5,1-11.8V82.9c0-6.6-0.4-10.4-1-11.5c-0.7-1.1-2.5-1.6-5.4-1.6
			h-3.5v-3.1c5.4,0.2,10.3,0.3,14.6,0.3l28.1-0.5c2.9,0,5.7,0.1,8.3,0.4c-1,3.5-1.6,8.4-1.7,14.8h-3.1c-0.2-3.4-0.6-6.4-1.2-9.1
			c-4.5-1.2-9-1.8-13.5-1.8c-4,0-7.9,0.2-11.7,0.6c-0.4,4.2-0.6,8.1-0.6,11.5v15.5c2,0.1,3.9,0.1,5.8,0.1c4.9,0,9.2-0.1,12.8-0.4
			c1.2-0.1,2.1-0.3,2.5-0.8c0.4-0.5,0.8-1.7,1.1-3.8l0.5-3.7H55c-0.3,6-0.4,9.8-0.4,11.5l0,11.5h-3.2v-3.8c0-3-0.6-4.8-1.7-5.5
			c-1.1-0.7-5.5-1-13.1-1C34.6,102.8,32.1,102.9,29.2,103z"/>
	</g>
	<g>
		<path class="st1" d="M113.9,99.2l2.8-4.2c3.2,0.2,5.7,0.2,7.4,0.2L130,95c5.8-0.2,10.5-0.2,14.3-0.3c-0.5,2.6-0.9,4.9-1.1,6.7
			c-3.3-0.5-7.8-0.9-13.4-1.1c0.4,1.6,0.6,3,0.6,4.1c0,2.5-0.6,5.1-1.8,7.7c-1.2,2.6-3.2,5.5-6.1,8.5c3.2,2.3,6.2,4,9,5
			c2.8,1,5.4,1.5,7.7,1.5c1.2,0,3-0.7,5.3-2.2l0.7,2.2c-3.9,2.8-6.6,4.9-8.2,6.4c-1.2,0.4-2.5,0.6-3.8,0.6c-4.7,0-10.3-2.6-16.6-7.7
			c-3.6,2.9-6.8,4.9-9.7,6c-2.9,1.1-6.1,1.7-9.6,1.7c-5.7,0-10.3-1.8-14-5.4c-3.6-3.6-5.4-8-5.4-13.4c0-4.5,1.3-8.5,4-12
			c1.8-2.4,5.3-5.2,10.6-8.4c-1.8-4.7-2.7-8.7-2.7-11.9c0-2.5,0.4-4.7,1.1-6.5c0.5-1.3,1.5-2.5,2.9-3.8c3.6-3.1,6-4.9,6.9-5.4
			c1.4-0.7,3-1.1,4.9-1.1c2.6,0,4.7,0.8,6.2,2.4s2.3,3.8,2.3,6.5c0,6.3-4.5,12.7-13.6,19c5.1,9.4,11.5,17.5,19.2,24.4
			c1.8-2.1,3-4.1,3.6-5.9c0.7-1.8,1-3.7,1-5.7c0-2.2-0.4-4-1.1-5.4c-0.3-0.6-0.8-1.1-1.5-1.3c-1.1-0.3-3.7-0.4-7.7-0.4L113.9,99.2z
			 M113.9,124c-7.3-6.7-13.9-15.3-19.7-25.6c-3,2.1-5.1,4.2-6.3,6.3c-1.2,2.1-1.8,4.5-1.8,7.2c0,4.3,1.5,8.2,4.5,11.6
			c3,3.4,6.7,5.1,11.2,5.1C105.7,128.6,109.7,127.1,113.9,124z M99,90.9c5.7-4.6,8.5-9.1,8.5-13.5c0-1.9-0.5-3.5-1.4-4.7
			c-1-1.2-2.2-1.7-3.6-1.7c-1.7,0-3.1,0.7-4.2,2.1c-1.1,1.4-1.6,3.5-1.6,6.3C96.6,82.5,97.4,86.4,99,90.9z"/>
	</g>
	<g>
		<path class="st1" d="M161.7,128.5c0.5-4.8,0.7-13.2,0.7-25.1V89.9c0-5.5-0.2-10.3-0.6-14.2c-0.2-2.3-0.5-3.7-0.9-4s-1.6-0.7-3.8-1
			l-3.7-0.6v-2.9c5.1,0.2,8.5,0.2,10.3,0.2l12.5-0.1l10.2-0.2c4.1-0.1,8.3,0.3,12.6,1.2c4.3,0.9,8.2,2.6,11.7,5.2
			c3.5,2.6,6.2,5.9,8,9.8c1.8,3.9,2.7,8.5,2.7,13.7c0,10.5-3.5,19.1-10.6,25.9c-7,6.8-16.2,10.3-27.6,10.3l-5.7-0.1
			c-5.6-0.2-9.1-0.3-10.6-0.3c-2.5,0-5.7,0.2-9.6,0.6v-2.2L161.7,128.5z M171.7,128.3c4.2,0.6,7.9,0.9,11,0.9
			c8.7,0,15.4-2.2,20.2-6.7c5.8-5.4,8.7-13.3,8.7-23.7c0-9-2.4-15.9-7.2-20.6s-11.9-7.1-21.1-7.1c-3.2,0-7.1,0.3-11.6,1
			c-0.4,3-0.6,6.3-0.6,10.1v30.3C171.1,118.2,171.3,123.4,171.7,128.3z"/>
	</g>
</g>
<g id="text">
	<g>
		<path d="M232.9,68.2v4.7c0,1.9,0.1,3,0.3,3.3s0.7,0.5,1.5,0.5h1v0.9c-1.7-0.1-3.1-0.1-4.1-0.1c-1,0-2.4,0-4,0.1v-0.9h1.1
			c0.8,0,1.3-0.2,1.4-0.5c0.2-0.3,0.3-1.4,0.3-3.3V62.6c0-1.8-0.1-2.9-0.3-3.2c-0.2-0.3-0.7-0.5-1.5-0.5h-1V58
			c1.5,0.1,2.9,0.1,4.1,0.1l7.9-0.2c0.8,0,1.6,0,2.3,0.1c-0.3,1-0.5,2.4-0.5,4.1h-0.9c-0.1-0.9-0.2-1.8-0.3-2.5
			c-1.2-0.3-2.5-0.5-3.8-0.5c-1.1,0-2.2,0.1-3.3,0.2c-0.1,1.2-0.2,2.3-0.2,3.2V67c0.5,0,1.1,0,1.6,0c1.4,0,2.6,0,3.6-0.1
			c0.3,0,0.6-0.1,0.7-0.2c0.1-0.1,0.2-0.5,0.3-1.1l0.1-1h0.9c-0.1,1.7-0.1,2.7-0.1,3.2l0,3.2h-0.9v-1.1c0-0.8-0.2-1.3-0.5-1.5
			c-0.3-0.2-1.5-0.3-3.7-0.3C234.4,68.1,233.7,68.2,232.9,68.2z"/>
		<path d="M243.6,70.9c0-1.3,0.3-2.4,0.9-3.4c0.6-1,1.4-1.8,2.5-2.4s2.2-0.9,3.6-0.9c1.9,0,3.5,0.6,4.7,1.7s1.8,2.7,1.8,4.6
			c0,2.3-0.8,4.1-2.3,5.4c-1.4,1.2-3,1.8-4.9,1.8c-1.8,0-3.3-0.6-4.5-1.8C244.1,74.7,243.6,73,243.6,70.9z M246.1,70
			c0,1.9,0.4,3.5,1.2,4.8s1.9,2,3.3,2c1.1,0,2-0.4,2.7-1.3s1-2.1,1-3.8c0-1.4-0.2-2.6-0.6-3.6s-0.9-1.7-1.6-2.2s-1.4-0.7-2.2-0.7
			c-0.7,0-1.4,0.2-1.9,0.5c-0.6,0.4-1,0.9-1.3,1.5C246.3,68.1,246.1,69,246.1,70z"/>
		<path d="M258.8,70.9c0-1.3,0.3-2.4,0.9-3.4c0.6-1,1.4-1.8,2.5-2.4s2.2-0.9,3.6-0.9c1.9,0,3.5,0.6,4.7,1.7s1.8,2.7,1.8,4.6
			c0,2.3-0.8,4.1-2.3,5.4c-1.4,1.2-3,1.8-4.9,1.8c-1.8,0-3.3-0.6-4.5-1.8C259.4,74.7,258.8,73,258.8,70.9z M261.4,70
			c0,1.9,0.4,3.5,1.2,4.8s1.9,2,3.3,2c1.1,0,2-0.4,2.7-1.3s1-2.1,1-3.8c0-1.4-0.2-2.6-0.6-3.6s-0.9-1.7-1.6-2.2s-1.4-0.7-2.2-0.7
			c-0.7,0-1.4,0.2-1.9,0.5c-0.6,0.4-1,0.9-1.3,1.5C261.6,68.1,261.4,69,261.4,70z"/>
		<path d="M284.8,65.1v-5c0-0.6-0.1-0.9-0.2-1.1s-0.4-0.2-0.9-0.2h-1.2V58c1.6-0.1,3.1-0.4,4.6-1l0.2,0.2c-0.1,0.9-0.1,2.1-0.2,3.4
			l-0.1,3.6l0,1.2v8.2c0,1.5,0,2.4,0.1,2.5c0.1,0.2,0.5,0.4,1.1,0.5l1,0.1v0.8c-1.1-0.1-2.1-0.1-3-0.1c-0.2,0-0.7,0-1.7,0.1
			c0.1-0.6,0.1-1.5,0.2-2.6c-0.8,0.6-1.8,1.4-3,2.5c-0.8,0.3-1.5,0.4-2,0.4c-1.5,0-2.8-0.6-3.9-1.7c-1-1.2-1.6-2.7-1.6-4.6
			c0-1.2,0.2-2.2,0.6-3.1c0.4-0.9,0.9-1.5,1.4-1.9c0.6-0.4,1.4-0.9,2.6-1.5c0.9-0.4,1.7-0.7,2.5-0.7c0.5,0,1.1,0.1,1.6,0.2
			S284.2,64.8,284.8,65.1z M284.8,67.4c-0.6-0.7-1.3-1.2-2-1.5c-0.7-0.3-1.4-0.5-2.1-0.5c-1.2,0-2.2,0.4-2.9,1.3
			c-0.7,0.9-1.1,2.1-1.1,3.8c0,1.7,0.4,3,1.2,4c0.8,1,1.8,1.5,3,1.5c0.7,0,1.4-0.2,2-0.6c0.6-0.4,1.1-0.9,1.3-1.6
			c0.3-0.6,0.4-1.7,0.4-3.1V67.4z"/>
		<path d="M309.2,67.5l0.8-1.2c0.9,0,1.7,0.1,2.2,0.1l1.7,0c1.7,0,3.1-0.1,4.2-0.1c-0.1,0.8-0.3,1.4-0.3,2c-1-0.2-2.3-0.3-3.9-0.3
			c0.1,0.5,0.2,0.9,0.2,1.2c0,0.7-0.2,1.5-0.5,2.3c-0.4,0.8-1,1.6-1.8,2.5c0.9,0.7,1.8,1.2,2.7,1.5c0.8,0.3,1.6,0.4,2.3,0.4
			c0.3,0,0.9-0.2,1.6-0.7l0.2,0.7c-1.1,0.8-2,1.4-2.4,1.9c-0.4,0.1-0.7,0.2-1.1,0.2c-1.4,0-3-0.8-4.9-2.3c-1,0.9-2,1.4-2.9,1.8
			s-1.8,0.5-2.8,0.5c-1.7,0-3-0.5-4.1-1.6c-1.1-1.1-1.6-2.4-1.6-3.9c0-1.3,0.4-2.5,1.2-3.5c0.5-0.7,1.6-1.5,3.1-2.5
			c-0.5-1.4-0.8-2.6-0.8-3.5c0-0.7,0.1-1.4,0.3-1.9c0.1-0.4,0.4-0.7,0.8-1.1c1.1-0.9,1.8-1.5,2-1.6c0.4-0.2,0.9-0.3,1.4-0.3
			c0.8,0,1.4,0.2,1.8,0.7s0.7,1.1,0.7,1.9c0,1.9-1.3,3.7-4,5.6c1.5,2.8,3.4,5.2,5.7,7.2c0.5-0.6,0.9-1.2,1.1-1.7
			c0.2-0.5,0.3-1.1,0.3-1.7c0-0.6-0.1-1.2-0.3-1.6c-0.1-0.2-0.2-0.3-0.4-0.4c-0.3-0.1-1.1-0.1-2.3-0.1L309.2,67.5z M309.2,74.8
			c-2.2-2-4.1-4.5-5.8-7.5c-0.9,0.6-1.5,1.2-1.8,1.9c-0.4,0.6-0.5,1.3-0.5,2.1c0,1.3,0.4,2.4,1.3,3.4c0.9,1,2,1.5,3.3,1.5
			C306.8,76.1,307.9,75.7,309.2,74.8z M304.8,65c1.7-1.3,2.5-2.7,2.5-4c0-0.6-0.1-1-0.4-1.4s-0.6-0.5-1.1-0.5
			c-0.5,0-0.9,0.2-1.3,0.6c-0.3,0.4-0.5,1-0.5,1.9C304.1,62.5,304.3,63.7,304.8,65z"/>
		<path d="M329.1,76.1c0.1-1.4,0.2-3.9,0.2-7.4v-4c0-1.6-0.1-3-0.2-4.2c-0.1-0.7-0.1-1.1-0.3-1.2s-0.5-0.2-1.1-0.3l-1.1-0.2V58
			c1.5,0,2.5,0.1,3,0.1l3.7,0l3-0.1c1.2,0,2.4,0.1,3.7,0.4c1.3,0.3,2.4,0.8,3.4,1.5c1,0.8,1.8,1.7,2.4,2.9s0.8,2.5,0.8,4
			c0,3.1-1,5.6-3.1,7.6c-2.1,2-4.8,3-8.1,3l-1.7,0c-1.6-0.1-2.7-0.1-3.1-0.1c-0.7,0-1.7,0.1-2.8,0.2v-0.7L329.1,76.1z M332,76
			c1.2,0.2,2.3,0.3,3.3,0.3c2.6,0,4.5-0.7,5.9-2c1.7-1.6,2.6-3.9,2.6-7c0-2.7-0.7-4.7-2.1-6.1s-3.5-2.1-6.2-2.1
			c-1,0-2.1,0.1-3.4,0.3c-0.1,0.9-0.2,1.9-0.2,3v8.9C331.8,73.1,331.9,74.6,332,76z"/>
		<path d="M352.9,67.4c0.4-0.3,0.8-0.8,1.2-1.4c0.5-0.7,1-1.1,1.4-1.4s0.9-0.4,1.4-0.4c0.5,0,0.9,0.1,1.2,0.2
			c0.1,0.1,0.2,0.1,0.2,0.3l0,0.1c-0.1,0.7-0.2,1.8-0.2,3.1h-0.6c-0.2-0.5-0.5-0.8-0.7-1c-0.3-0.2-0.6-0.3-1-0.3
			c-0.5,0-1,0.2-1.5,0.5c-0.5,0.4-0.8,0.9-0.9,1.5c-0.2,0.7-0.2,1.9-0.2,3.9c0,1.3,0,2.3,0.2,3.2c0,0.3,0.1,0.5,0.3,0.6
			c0.3,0.2,0.9,0.3,1.5,0.3h0.8v0.8c-1.4-0.1-2.7-0.1-4-0.1c-1.2,0-2.4,0-3.6,0.1v-0.8l1.3-0.1c0.5,0,0.8-0.1,0.9-0.3
			s0.2-0.6,0.2-1.3c0.1-1.3,0.1-2.9,0.1-4.7c0-2.2-0.1-3.5-0.3-3.9c-0.1-0.2-0.5-0.4-1.1-0.4h-1.1v-0.8c0.9-0.1,1.7-0.2,2.4-0.4
			c0.7-0.2,1.3-0.4,1.8-0.6c0.1-0.1,0.2-0.1,0.3-0.1c0.1,0,0.2,0,0.2,0.1c0,0.1,0.1,0.2,0.1,0.4L352.9,67.4z"/>
		<path d="M363.9,64.2l0.3,0.2c-0.1,0.7-0.1,1.4-0.1,2.3c-0.1,2.7-0.1,4.6-0.1,5.9c0,1.2,0,2.2,0.1,3c0,0.3,0.1,0.6,0.3,0.7
			c0.1,0.1,0.5,0.2,1,0.3l0.9,0.1v0.8c-1.3-0.1-2.5-0.1-3.6-0.1c-1.1,0-2.2,0-3.3,0.1v-0.8l1.2-0.1c0.5,0,0.7-0.1,0.8-0.3
			c0.1-0.1,0.2-0.6,0.2-1.3c0-1.2,0.1-2.8,0.1-4.8c0-1.4,0-2.5-0.1-3.3c0-0.3-0.1-0.5-0.2-0.6s-0.5-0.2-1-0.2h-1v-0.8
			c1.1-0.2,1.9-0.3,2.5-0.4C362.4,64.8,363.1,64.5,363.9,64.2z M362.8,58.1c0.4,0,0.8,0.2,1.1,0.5c0.3,0.3,0.5,0.7,0.5,1.1
			c0,0.4-0.2,0.8-0.5,1.1s-0.7,0.5-1.1,0.5c-0.4,0-0.8-0.2-1.1-0.5s-0.5-0.7-0.5-1.1c0-0.4,0.2-0.8,0.5-1.1
			C362.1,58.3,362.4,58.1,362.8,58.1z"/>
		<path d="M371.8,66.9l2.1-1.8c0.2-0.2,0.5-0.4,0.8-0.5c0.6-0.2,1.2-0.3,1.8-0.3c1,0,1.8,0.2,2.5,0.6s1.2,0.9,1.5,1.5
			c0.3,0.6,0.5,1.6,0.5,3l-0.1,4.3c0,1.5,0.1,2.3,0.2,2.6c0.2,0.3,0.5,0.4,1,0.4h1v0.8c-1-0.1-1.8-0.1-2.5-0.1c-0.7,0-1.4,0-2.2,0.1
			c0.2-1.8,0.3-4.2,0.3-7.2c0-1.2-0.1-2.1-0.3-2.6c-0.2-0.5-0.6-0.9-1.1-1.2c-0.5-0.3-1.1-0.5-1.8-0.5c-0.9,0-1.6,0.2-2.3,0.7
			c-0.6,0.4-1,0.9-1.1,1.5c-0.1,0.4-0.1,1.3-0.1,2.8c0,1.7,0,3.2,0,4.6c0,0.4,0.1,0.7,0.2,0.8c0.2,0.2,0.6,0.3,1.1,0.3h1v0.8
			c-1.5-0.1-2.8-0.1-3.7-0.1c-1,0-2.1,0-3.3,0.1v-0.8h1c0.7,0,1.1-0.2,1.2-0.5s0.2-2.2,0.2-5.7c0-1.6,0-2.8-0.1-3.7
			c0-0.3-0.1-0.5-0.2-0.6s-0.5-0.2-1.1-0.2h-1v-0.8c0.8-0.1,1.5-0.2,2.1-0.4c0.6-0.2,1.3-0.4,2.1-0.7c0.1,0,0.2-0.1,0.2-0.1
			c0.1,0,0.2,0.1,0.2,0.3l0,0.5L371.8,66.9z"/>
		<path d="M388.4,70.6v1.7c0,2.3,0.1,3.6,0.2,3.9c0.2,0.3,0.6,0.4,1.4,0.4h0.8v0.8l-0.7,0c-1.3,0-2.2-0.1-2.6-0.1l-3.6,0.1v-0.8h0.8
			c0.7,0,1.1-0.1,1.2-0.4c0.1-0.3,0.2-1.6,0.2-3.9v-8.2c0-3-0.1-4.7-0.2-5.1c-0.1-0.2-0.4-0.3-1.1-0.3h-1.2V58
			c0.8,0,1.9-0.2,3.3-0.6l1.4-0.4c0.1,0,0.2,0.1,0.2,0.3l-0.1,1.4c0,0.3,0,2.3-0.1,5.7v5.5l0.2,0.1c0.8-0.6,1.5-1.2,2.1-1.7
			c0.3-0.3,1-0.9,2-1.9l2-1.8h2.8v0.8H397c-0.3,0-0.7,0.2-1.2,0.5c-1,0.6-2.6,1.8-4.9,3.7c1.7,1.8,2.8,2.8,3.2,3.2
			c1.8,1.7,2.9,2.7,3.3,3c0.2,0.2,0.4,0.3,0.6,0.4c0.2,0.1,0.4,0.1,0.7,0.2v0.6c-0.8,0.4-1.7,0.6-2.6,0.9c-0.5-0.4-1.8-1.7-3.8-3.7
			c-1.5-1.5-2.7-2.6-3.6-3.4H388.4z"/>
	</g>
	<g>
		<path d="M229.2,143.5h2.3c2.3,0,3.6-0.5,4.1-1.6s0.7-6.4,0.7-15.8v-12.4c0-9.8-0.2-15.1-0.6-16.1c-0.4-1-1.6-1.5-3.5-1.5h-3v-2.3
			c4.1,0.2,8.1,0.3,12,0.3c3.3,0,6.3-0.1,9-0.3v2.3h-2.8c-1.7,0-2.8,0.2-3.3,0.6c-0.4,0.4-0.7,1.5-0.8,3.1c-0.1,2.6-0.2,7.3-0.2,14
			v12.6c0,9.5,0.2,14.7,0.6,15.7c0.4,1,1.8,1.4,4,1.4h2.4v2.3c-3-0.2-6.3-0.3-9.8-0.3c-4.1,0-7.9,0.1-11.2,0.3V143.5z"/>
		<path d="M281.9,140.7l1,0.9l-1.5,2.3c-1.7,0.9-3.4,1.6-5.1,2c-1.8,0.5-3.6,0.7-5.4,0.7c-3.6,0-6.6-0.7-9.1-2.1s-4.4-3.3-5.8-5.9
			c-1.4-2.6-2.1-5.7-2.1-9.2c0-3.1,0.5-5.9,1.6-8.2s2.5-4.2,4.4-5.5c1.9-1.3,4.3-2.6,7.1-3.9c2-0.9,4.2-1.4,6.7-1.4
			c1.9,0,3.5,0.2,4.9,0.5c1.4,0.3,2.8,0.9,4.4,1.6c-0.6,3.2-0.9,6.5-1,9.7h-2.3v-1.8c0-1.6-0.2-2.7-0.7-3.3
			c-0.5-0.6-1.5-1.3-3.1-1.9c-1.6-0.6-3.4-1-5.3-1c-3.3,0-5.8,1-7.6,3c-1.8,2-2.7,5-2.7,9c0,5.1,1.3,9.3,4,12.4
			c2.4,2.8,5.4,4.2,9.2,4.2c1.5,0,2.9-0.2,4.3-0.5S280.5,141.4,281.9,140.7z"/>
		<path d="M288.2,128.3c0-3.4,0.8-6.4,2.3-9.1c1.6-2.7,3.8-4.9,6.6-6.4c2.8-1.5,6-2.3,9.6-2.3c5.2,0,9.4,1.5,12.5,4.6
			s4.7,7.2,4.7,12.3c0,6.1-2,10.9-6.1,14.4c-3.6,3.2-8,4.8-13.1,4.8c-4.9,0-8.9-1.6-11.9-4.9S288.2,133.9,288.2,128.3z M295.1,125.7
			c0,5,1,9.3,3.1,12.9c2.1,3.6,5,5.4,8.9,5.4c3,0,5.3-1.1,7.2-3.4c1.8-2.2,2.7-5.7,2.7-10.2c0-3.7-0.5-6.9-1.6-9.6
			c-1.1-2.7-2.5-4.7-4.2-5.9c-1.8-1.2-3.7-1.9-5.9-1.9c-1.9,0-3.7,0.5-5.2,1.5c-1.6,1-2.7,2.3-3.4,3.9
			C295.6,120.7,295.1,123.1,295.1,125.7z"/>
		<path d="M339.7,117.4l5.5-4.9c0.7-0.6,1.4-1,2.1-1.3c1.6-0.5,3.2-0.8,4.8-0.8c2.6,0,4.9,0.5,6.8,1.6c1.9,1.1,3.3,2.4,4.1,4.1
			c0.8,1.7,1.2,4.4,1.2,8l-0.1,11.5c0,4,0.2,6.3,0.5,6.9c0.5,0.8,1.4,1.2,2.7,1.2h2.6v2.1c-2.6-0.2-4.9-0.3-6.8-0.3
			c-1.8,0-3.8,0.1-6,0.3c0.5-4.8,0.7-11.2,0.7-19.3c0-3.3-0.3-5.6-0.9-7c-0.6-1.4-1.5-2.5-2.9-3.3c-1.4-0.8-3-1.2-4.9-1.2
			c-2.4,0-4.4,0.6-6,1.8c-1.7,1.2-2.7,2.5-3.1,4c-0.2,1-0.4,3.4-0.4,7.5c0,4.5,0,8.6,0.1,12.5c0,1.1,0.2,1.9,0.5,2.2
			c0.6,0.6,1.6,0.8,3,0.8h2.6v2.1c-4.1-0.2-7.4-0.3-9.9-0.3c-2.6,0-5.5,0.1-8.8,0.3v-2.1h2.6c1.8,0,2.9-0.4,3.2-1.3
			s0.5-5.9,0.5-15.2c0-4.2,0-7.4-0.1-9.8c0-0.8-0.2-1.3-0.6-1.6c-0.3-0.3-1.3-0.4-2.9-0.4h-2.6v-2.1c2.1-0.2,4-0.6,5.6-1
			c1.7-0.4,3.5-1,5.6-1.9c0.2-0.1,0.4-0.1,0.6-0.1c0.4,0,0.6,0.3,0.6,0.8l0,1.4L339.7,117.4z"/>
		<path d="M375.7,134.6v2.4c0,1.9,0.2,3.1,0.5,3.6c0.6,0.8,1.9,1.5,3.7,2.3s3.7,1.1,5.7,1.1c2.5,0,4.6-0.7,6.2-2
			c1.6-1.4,2.4-3,2.4-4.9c0-1.5-0.5-2.7-1.4-3.6c-0.9-0.9-2.7-1.6-5.3-2.2c-4.9-1-8.1-1.8-9.6-2.6c-1.6-0.7-2.7-1.7-3.5-2.9
			c-0.8-1.2-1.2-2.7-1.2-4.4c0-3.3,1.2-5.9,3.5-7.9s5.7-3,10-3c3.4,0,6.8,0.7,10.2,2.1c-0.2,1.7-0.4,4.4-0.5,8.3h-2.2
			c0-2.1-0.3-3.6-0.7-4.2c-0.6-0.9-1.6-1.7-3.1-2.5s-3.1-1.1-4.8-1.1c-2.2,0-4,0.6-5.3,1.7c-1.3,1.1-2,2.6-2,4.3
			c0,1.6,0.5,2.9,1.6,3.7c1,0.9,4,1.8,8.7,2.7c3.5,0.7,5.8,1.4,7,2c1.1,0.6,2,1.5,2.7,2.8s1,2.7,1,4.3c0,3.3-1.4,6.1-4.2,8.5
			c-2.8,2.4-6.6,3.6-11.3,3.6c-3,0-6.4-0.5-10.1-1.4c-0.7-0.2-1-0.4-1-0.8l0.1-0.5c0.1-0.4,0.2-1,0.3-1.9c0.2-2.4,0.3-4.2,0.3-5.5
			l0-1.8H375.7z"/>
	</g>
</g>
<g id="arrow">
	<g>
		<line class="st2" x1="424.8" y1="156" x2="0" y2="156"/>
		<g>
			<path d="M455,156c-14.2-5.3-31.8-14.3-42.7-23.8l8.6,23.8l-8.6,23.8C423.2,170.3,440.8,161.3,455,156z"/>
		</g>
	</g>
</g>
</svg>
