<?xml version="1.0" encoding="utf-8"?>
<!-- Generator: Adobe Illustrator 22.1.0, SVG Export Plug-In . SVG Version: 6.00 Build 0)  -->
<svg version="1.1" id="mule" xmlns="http://www.w3.org/2000/svg" xmlns:xlink="http://www.w3.org/1999/xlink" x="0px" y="0px"
	 viewBox="0 0 109 102.6" style="enable-background:new 0 0 109 102.6;" xml:space="preserve">
<style type="text/css">
	.st0{fill:#875C3E;stroke:#773406;stroke-width:5;stroke-miterlimit:10;}
	.st1{opacity:0.6;fill:#48C2FF;}
	.st2{fill:#DB874D;}
	.st3{opacity:0.6;fill:#875C3E;}
	.st4{fill:none;stroke:#773406;stroke-width:5;stroke-miterlimit:10;}
	.st5{fill:#9AC400;}
	.st6{fill:#C5E024;}
	.st7{fill:#FFFF73;}
	.st8{fill:#5F8E0C;}
	.st9{fill:#597C0B;}

	.st2:hover {fill: brown;}

</style>
<g id="muleCup">
	<ellipse id="muleLip" class="st0" cx="63" cy="20.2" rx="33.9" ry="3.9"/>
	<g id="muleIce">
		
			<rect x="45.6" y="11.3" transform="matrix(0.9943 -0.1064 0.1064 0.9943 -1.8729 5.9449)" class="st1" width="18.4" height="18.4"/>
		<rect x="33.5" y="9.1" transform="matrix(0.834 0.5517 -0.5517 0.834 17.1902 -20.495)" class="st1" width="18.4" height="18.4"/>
		
			<rect x="58.5" y="7.7" transform="matrix(0.9282 0.372 -0.372 0.9282 11.1269 -23.9644)" class="st1" width="18.4" height="18.4"/>
		
			<rect x="72.1" y="9.5" transform="matrix(0.9887 -0.1496 0.1496 0.9887 -1.8815 12.3677)" class="st1" width="18.4" height="18.4"/>
	</g>
	<path class="st2" d="M96.7,21.3c0,0-27.6,7.4-67.3,0.7c0,0-0.7,1.2-1.8,4.7C6.9,24,0,38.6,0,48.8c0,10.3,11,20.6,11,20.6
		c5.1,4.8,15.9,13.5,18.5,15.7c1.5,3.7,3.3,7.4,5.5,11.2c0,0,24.8,14.2,56.1,0C91.2,96.3,113.6,63.9,96.7,21.3z M25.2,70.6
		C9.5,60.1,6.7,52.8,9.6,42.6c2.5-8.9,13.2-8.7,16.2-8.5C23.8,43.1,22.4,56.1,25.2,70.6z"/>
	<path class="st3" d="M96.7,21.1C96.7,21.1,96.7,21.1,96.7,21.1c10.6,41.4-10.2,71.5-10.2,71.5c-19.7,8.9-37.1,7.8-48.5,5
		c7.4,3.2,28.3,9.9,53.2-1.4C91.2,96.3,113.6,63.7,96.7,21.1z"/>
	<g id="bevels">
		<circle class="st3" cx="36" cy="36.3" r="4.4"/>
		<circle class="st3" cx="48.9" cy="36.3" r="4.4"/>
		<circle class="st3" cx="61.8" cy="36.3" r="4.4"/>
		<circle class="st3" cx="74.7" cy="36.3" r="4.4"/>
		<circle class="st3" cx="87.5" cy="36.3" r="4.4"/>
		<circle class="st3" cx="42.3" cy="45.2" r="4.4"/>
		<circle class="st3" cx="30.5" cy="45.2" r="4.4"/>
		<circle class="st3" cx="55.2" cy="45.2" r="4.4"/>
		<circle class="st3" cx="68" cy="45.2" r="4.4"/>
		<circle class="st3" cx="80.9" cy="45.2" r="4.4"/>
		<circle class="st3" cx="93.8" cy="45.2" r="4.4"/>
		<circle class="st3" cx="36" cy="54" r="4.4"/>
		<circle class="st3" cx="48.9" cy="54" r="4.4"/>
		<circle class="st3" cx="61.8" cy="54" r="4.4"/>
		<circle class="st3" cx="74.7" cy="54" r="4.4"/>
		<circle class="st3" cx="87.5" cy="54" r="4.4"/>
		<circle class="st3" cx="29.8" cy="62.8" r="4.4"/>
		<circle class="st3" cx="42.7" cy="62.8" r="4.4"/>
		<circle class="st3" cx="55.5" cy="62.8" r="4.4"/>
		<circle class="st3" cx="68.4" cy="62.8" r="4.4"/>
		<circle class="st3" cx="81.3" cy="62.8" r="4.4"/>
		<circle class="st3" cx="93.8" cy="62.8" r="4.4"/>
		<circle class="st3" cx="36.4" cy="71.3" r="4.4"/>
		<circle class="st3" cx="49.3" cy="71.3" r="4.4"/>
		<circle class="st3" cx="62.1" cy="71.3" r="4.4"/>
		<circle class="st3" cx="75" cy="71.3" r="4.4"/>
		<circle class="st3" cx="87.9" cy="71.3" r="4.4"/>
		<circle class="st3" cx="43" cy="79.7" r="4.4"/>
		<circle class="st3" cx="55.9" cy="79.7" r="4.4"/>
		<circle class="st3" cx="68.8" cy="79.7" r="4.4"/>
		<circle class="st3" cx="81.6" cy="79.7" r="4.4"/>
		<circle class="st3" cx="49.6" cy="88.9" r="4.4"/>
		<circle class="st3" cx="62.5" cy="88.9" r="4.4"/>
		<circle class="st3" cx="75.4" cy="88.9" r="4.4"/>
	</g>
</g>
<path id="lip_in_front" class="st4" d="M29.1,20.2c3.6,1.5,22.5,10.9,66.2-0.4"/>
<g id="limeRight">
	<g>
		<g>
			<path class="st5" d="M70,31.9c0,0,3.2,0.4,4.7-0.8c2.3-1.8,3-4.9,2.5-5.6c-0.3-0.5-3.2-0.6-5.7,1.6C70.4,28.2,69.8,31.5,70,31.9z
				"/>
		</g>
		<g>
			<g>
				<g>
					<path class="st6" d="M103,24.3c2.4-1.6,6.8-4.7,5.9-13c-0.5-4.7-3.3-9.3-9.2-10.8c-4.9-1.2-8.5,0.1-11.3,1.9
						C86,4,82.6,8.9,82.9,14.2c0.7,10,10.7,11.9,11,11.9C97,26.5,100.8,25.8,103,24.3z"/>
				</g>
				<g>
					<g>
						<g>
							<path class="st7" d="M97.5,12.8c4.9,1.6,9.4,2.9,9.5,2.7c0.3-0.8,0.3-2.6,0.3-3.1c-0.1-1.3-0.4-2.6-0.9-3.9L97.5,12.8z"/>
						</g>
						<g>
							<path class="st7" d="M90.3,3.3c-1.5,0.9-2.8,2.1-3.7,3.6c-0.5,0.8-0.7,1.2-1,2c0,0,4.2,1.4,8.9,2.9L90.3,3.3z"/>
						</g>
						<g>
							<path class="st7" d="M97,11.5l8.7-4.3c-0.9-1.5-2.1-2.8-3.6-3.7c-0.6-0.4-1.3-0.7-2-1L97,11.5z"/>
						</g>
						<g>
							<path class="st7" d="M95.7,11.1l3.1-9.1c-2.4-0.6-5-0.4-7.3,0.6L95.7,11.1z"/>
						</g>
					</g>
					<g>
						<path class="st7" d="M97.2,14.2c4.9,1.6,9.3,3,9.3,3.3c-0.2,0.8-0.4,1-0.7,1.4c-1,1.6-2.3,2.9-3.9,3.9L97.2,14.2z"/>
					</g>
					<g>
						<path class="st7" d="M85.8,17.8c-0.7-1.6-1-3.3-1-5.1c0-0.9,0.1-1.4,0.3-2.2c0,0,4.3,1.3,9,2.8L85.8,17.8z"/>
					</g>
					<g>
						<path class="st7" d="M95.9,14.7l4.7,8.7c-2,0.8-5,1.2-5.7,0.9c-0.3-0.1,0-2.4,0.2-4.7C95.4,16.9,95.9,14.7,95.9,14.7z"/>
					</g>
				</g>
			</g>
			<g>
				<path class="st7" d="M92.8,23.7c-1.6-0.5-3.2-1.3-4.5-2.6c-0.7-0.6-1-0.9-1.5-1.7c0,0,3.7-2.4,7.9-5L92.8,23.7z"/>
			</g>
		</g>
		<g>
			<g>
				<g>
					<path class="st8" d="M85.4,20.3c0,0,4.4-1.7,7.3,0.7c2.9,2.4,4.4,7.6,3.4,8.7c-1,1.1-5.3,0.6-7.6-1.4
						C85.9,26.2,84.3,22.8,85.4,20.3z"/>
				</g>
				<g>
					<path class="st8" d="M85.5,19.7c0,0-3.4,0.4-4.8,1.9c-1.4,1.5-1.6,4.6-0.9,5.3c0.5,0.5,2.5-0.1,3.8-1.4
						C84.7,24.4,85.9,20.1,85.5,19.7z"/>
				</g>
				<g>
					<path class="st8" d="M84.8,20.5c0,0,0-3.6,1.3-5.2c1.3-1.6,4.1-2.3,4.9-1.7c0.5,0.4,0.1,3.1-1,4.5C89,19.3,85.3,20.8,84.8,20.5
						z"/>
				</g>
			</g>
			<g>
				<path class="st8" d="M85.4,20c0,0-4,1.8-6.8-0.3c-2.8-2.1-4.3-6.9-3.5-7.9c0.9-1.1,4.9-0.7,7.1,1C84.7,14.6,86.2,17.7,85.4,20z"
					/>
			</g>
		</g>
	</g>
</g>
<g id="mintLeft">
	<path class="st9" d="M47.9,11.6c0,0-4.5,1-6,3.3c-2.3,3.6-1.7,8-0.7,8.8c0.7,0.6,4.7-0.8,6.9-4.9C49.1,16.9,48.5,12,47.9,11.6z"/>
	<path class="st8" d="M31.5,14.1c0,0,0.5,4.6,2.6,6.3c3.3,2.7,7.7,2.6,8.7,1.6c0.6-0.6-0.3-4.7-4.1-7.4C36.9,13.4,32,13.5,31.5,14.1
		z"/>
</g>
</svg>
