<?xml version="1.0" encoding="utf-8"?>
<!-- Generator: Adobe Illustrator 22.1.0, SVG Export Plug-In . SVG Version: 6.00 Build 0)  -->
<svg version="1.1" id="scotch" xmlns="http://www.w3.org/2000/svg" xmlns:xlink="http://www.w3.org/1999/xlink" x="0px" y="0px"
	 viewBox="0 0 87.8 104.9" style="enable-background:new 0 0 87.8 104.9;" xml:space="preserve">
<style type="text/css">
	.st0{opacity:0.8;fill:#333333;}
	.st1{opacity:0.6;fill:#684800;}
	.st2{opacity:0.3;fill:#002B3A;}
	.st3{opacity:0.2;fill:#002B3A;}
	.st4{opacity:0.6;fill:#FFFFFF;}
</style>
<polygon id="stirStick" class="st0" points="19.9,85.9 18.1,86.3 0,0.4 1.8,0 "/>
<g id="scotchDrink">
	<path class="st1" d="M80.6,59.3L77,93.8c-0.3,3.1-2.8,5.5-5.7,5.5H16.9c-2.9,0-5.4-2.4-5.7-5.5L7.6,59.3H80.6z"/>
</g>
<g id="scotchGlass">
	<path class="st2" d="M73.5,104.9H14.7c-3.2,0-5.9-2.5-6.2-5.9l-8-78.3c-0.2-2,1.3-3.8,3.2-3.8h80.9c1.9,0,3.4,1.8,3.2,3.8l-8,78.3
		C79.4,102.3,76.7,104.9,73.5,104.9z"/>
	<path class="st3" d="M87.8,20.6l-8,78.3c-0.3,3.4-3,5.9-6.2,5.9H59.6l7.3-88.1h17.6C86.5,16.8,88,18.6,87.8,20.6z"/>
</g>
<g id="ice">
	
		<rect x="16.1" y="66.8" transform="matrix(-0.3972 0.9177 -0.9177 -0.3972 114.675 84.9678)" class="st4" width="26.8" height="26.8"/>
	
		<rect x="45.3" y="47.9" transform="matrix(0.8099 -0.5865 0.5865 0.8099 -24.8212 46.1426)" class="st4" width="26.9" height="26.9"/>
</g>
</svg>
