<?xml version="1.0" encoding="utf-8"?>
<!-- Generator: Adobe Illustrator 22.1.0, SVG Export Plug-In . SVG Version: 6.00 Build 0)  -->
<svg version="1.1" id="tequila" xmlns="http://www.w3.org/2000/svg" xmlns:xlink="http://www.w3.org/1999/xlink" x="0px" y="0px"
	 viewBox="0 0 53.3 125.1" style="enable-background:new 0 0 53.3 125.1;" xml:space="preserve">
<style type="text/css">
	.st0{fill:#A59A13;}
	.st1{fill:#E8E336;}
	.st2{opacity:0.12;fill:#009EFF;}
	.st3{opacity:0.5;fill:#C6A000;}
</style>
<g id="tequilaLemon">
	<g>
		<g>
			<path class="st0" d="M7.8,61.6C21.7,63.7,41,60,46.4,40.8c6.3-22.2-9-35.4-18.8-40.8L7.8,61.6z"/>
		</g>
		<g>
			<g>
				<path class="st1" d="M15.9,34.3C11.8,46.1,8.1,57,8.7,57c1.3-0.1,2.6,0.6,3.9,0.8c4.5,0.6,9.1,0,13.4-1.6L15.9,34.3z"/>
			</g>
			<g>
				<path class="st1" d="M39.6,17.9c-2-3.6-4.9-6.9-8.6-9.4c-1.8-1.2-2.8-1.9-4.8-2.6c0,0-3.7,10.1-7.7,21.2L39.6,17.9z"/>
			</g>
			<g>
				<path class="st1" d="M19.1,33.2l9.9,21.5c3.7-1.9,6.9-4.7,9.4-8.4c1-1.5,1.9-3,2.6-4.6L19.1,33.2z"/>
			</g>
			<g>
				<path class="st1" d="M20.1,30.1L42,38.6c1.7-5.9,1.3-12.1-1-17.7L20.1,30.1z"/>
			</g>
		</g>
	</g>
</g>
<g id="tequilaGlass">
	<path class="st2" d="M53,31.1l-6.8,88.6c-0.2,3-2.7,5.3-5.7,5.3h-28c-3,0-5.5-2.3-5.7-5.3L0,31.1h4.1c2.2,23.1,4.4,46.2,6.6,69.4
		c2.8,1.6,7.9,3.9,14.7,4.2c8,0.3,14-2.5,16.9-4.2L49,31.1H53z"/>
	<path class="st2" d="M40.7,125.1h-28c-3,0-5.5-2.3-5.7-5.3L0.2,31.1h53l-6.8,88.6C46.3,122.8,43.8,125.1,40.7,125.1z"/>
	<g id="tequilaGlass_1_">
		<path class="st2" d="M53.1,31.1l-6.8,88.6c-0.2,3-2.7,5.3-5.7,5.3H29.4c3,0,5.5-2.3,5.7-5.3l1.3-16.7c0.1,0,0.2-0.1,0.2-0.1
			c2.4-0.8,4.4-1.8,5.7-2.5L49,31.1H53.1z"/>
		<path class="st2" d="M53.3,31.1l-6.8,88.6c-0.2,3-2.7,5.3-5.7,5.3H29.4c3,0,5.5-2.3,5.7-5.3l1.3-16.7L42,31.1H53.3z"/>
	</g>
</g>
<path id="tequillaDrink" class="st3" d="M48.5,36.1l-6.2,64.4c-2.9,1.6-8.9,4.4-16.9,4.2c-6.8-0.2-11.9-2.6-14.7-4.2
	C8.7,79,6.6,57.5,4.5,36.1h8.7l1.6,22.2l1.8,23L16,58.2l-0.6-22.2H48.5z"/>
</svg>
